<svg version="1.2" baseProfile="tiny-ps" xmlns="http://www.w3.org/2000/svg" viewBox="0 0 43 29" width="43" height="29">
	<title>icon</title>
	<style>
		tspan { white-space:pre }
		.shp0 { fill: #ffffff } 
	</style>
	<path id="icon" class="shp0" d="M39.2 12.6L38.16 8.5C38.45 8.44 38.66 8.2 38.66 7.9L38.66 7.24C38.66 5.81 37.48 4.64 36.03 4.64L31.31 4.64L31.31 3.28C31.31 2.57 30.73 2 30.02 2L5.96 2C5.25 2 4.67 2.57 4.67 3.28L4.67 14.5C4.67 14.84 4.95 15.12 5.3 15.12C5.64 15.12 5.92 14.84 5.92 14.5L5.92 3.28C5.92 3.25 5.94 3.24 5.96 3.24L30.02 3.24C30.04 3.24 30.06 3.25 30.06 3.28L30.06 14.5C30.06 14.84 30.34 15.12 30.68 15.12C31.03 15.12 31.31 14.84 31.31 14.5L31.31 13.8L38.7 13.8C38.7 13.8 38.7 13.8 38.7 13.8C38.7 13.8 38.7 13.8 38.7 13.8C39.61 13.8 40.38 14.39 40.65 15.2L38.7 15.2C38.35 15.2 38.07 15.48 38.07 15.82L38.07 17.14C38.07 18.21 38.95 19.08 40.04 19.08L40.75 19.08L40.75 21.8L39.11 21.8C38.57 20.27 37.09 19.16 35.36 19.16C33.63 19.16 32.15 20.27 31.61 21.8L31.31 21.8L31.31 17.14C31.31 16.8 31.03 16.52 30.68 16.52C30.34 16.52 30.06 16.8 30.06 17.14L30.06 21.8L17.06 21.8C16.52 20.27 15.05 19.16 13.31 19.16C11.58 19.16 10.1 20.27 9.56 21.8L5.96 21.8C5.94 21.8 5.92 21.78 5.92 21.76L5.92 20.4L8.64 20.4C8.98 20.4 9.26 20.12 9.26 19.78C9.26 19.44 8.98 19.16 8.64 19.16L2.62 19.16C2.28 19.16 2 19.44 2 19.78C2 20.12 2.28 20.4 2.62 20.4L4.67 20.4L4.67 21.76C4.67 22.47 5.25 23.04 5.96 23.04L9.35 23.04C9.35 23.05 9.35 23.07 9.35 23.08C9.35 25.24 11.13 27 13.31 27C15.5 27 17.28 25.24 17.28 23.08C17.28 23.07 17.28 23.05 17.28 23.04L31.39 23.04C31.39 23.05 31.39 23.07 31.39 23.08C31.39 25.24 33.17 27 35.36 27C37.55 27 39.33 25.24 39.33 23.08C39.33 23.07 39.33 23.05 39.33 23.04L41.37 23.04C41.72 23.04 42 22.76 42 22.42L42 15.82C42 14.19 40.78 12.84 39.2 12.6ZM31.31 8.52L36.88 8.52L37.9 12.56L31.31 12.56L31.31 8.52ZM36.03 5.88C36.79 5.88 37.41 6.49 37.41 7.24L37.41 7.28L31.31 7.28L31.31 5.88L36.03 5.88ZM13.31 25.76C11.82 25.76 10.6 24.56 10.6 23.08C10.6 21.6 11.82 20.4 13.31 20.4C14.81 20.4 16.03 21.6 16.03 23.08C16.03 24.56 14.81 25.76 13.31 25.76ZM35.36 25.76C33.86 25.76 32.65 24.56 32.65 23.08C32.65 21.6 33.86 20.4 35.36 20.4C36.86 20.4 38.07 21.6 38.07 23.08C38.07 24.56 36.86 25.76 35.36 25.76ZM40.04 17.84C39.65 17.84 39.33 17.53 39.33 17.14L39.33 16.44L40.75 16.44L40.75 17.84L40.04 17.84ZM13.31 21.8C12.6 21.8 12.02 22.38 12.02 23.08C12.02 23.79 12.6 24.36 13.31 24.36C14.03 24.36 14.61 23.79 14.61 23.08C14.61 22.38 14.03 21.8 13.31 21.8ZM35.36 21.8C34.65 21.8 34.07 22.38 34.07 23.08C34.07 23.79 34.65 24.36 35.36 24.36C36.07 24.36 36.65 23.79 36.65 23.08C36.65 22.38 36.07 21.8 35.36 21.8ZM18.03 19.78C18.03 20.12 18.31 20.4 18.66 20.4L28.01 20.4C28.36 20.4 28.64 20.12 28.64 19.78C28.64 19.44 28.36 19.16 28.01 19.16L18.66 19.16C18.31 19.16 18.03 19.44 18.03 19.78ZM3.96 17.76L11.98 17.76C12.32 17.76 12.6 17.48 12.6 17.14C12.6 16.8 12.32 16.52 11.98 16.52L3.96 16.52C3.61 16.52 3.33 16.8 3.33 17.14C3.33 17.48 3.61 17.76 3.96 17.76ZM22.89 8.12L17.32 13.62L14.42 10.76C14.18 10.52 13.78 10.52 13.54 10.76C13.29 11 13.29 11.39 13.54 11.64L16.88 14.94C17 15.06 17.16 15.12 17.32 15.12C17.48 15.12 17.64 15.06 17.76 14.94L23.78 9C24.02 8.75 24.02 8.36 23.78 8.12C23.53 7.88 23.14 7.88 22.89 8.12Z" />
</svg>