<svg version="1.2" baseProfile="tiny-ps" xmlns="http://www.w3.org/2000/svg" viewBox="0 0 60 61" width="60" height="61">
	<title>Icon_bg</title>
	<style>
		tspan { white-space:pre }
		.shp0 { fill: #fe3e57 } 
	</style>
	<path id="Icon_bg" class="shp0" d="M0 1L60 1L60 61L0 61L0 1ZM42.38 30.68C41.99 30.33 41.47 30.11 40.93 30.08C40.33 30.05 39.76 30.26 39.33 30.68L36.44 33.47C36.39 33.37 36.32 33.28 36.25 33.2C35.89 32.78 35.37 32.56 34.78 32.56L30.74 32.56C29.97 32.56 29.23 32.46 28.53 32.27C26.69 31.77 24.93 32.14 23.45 33.32C22.84 33.8 22.4 34.32 22.13 34.71L21.4 34.02C21.31 33.93 21.18 33.88 21.04 33.88C21.04 33.88 21.04 33.88 21.04 33.88C20.9 33.88 20.77 33.93 20.67 34.03L17.15 37.6C17.05 37.7 17 37.83 17 37.96C17.01 38.09 17.06 38.22 17.16 38.31L23.13 43.86C23.23 43.95 23.35 44 23.48 44C23.61 44 23.75 43.95 23.85 43.85L27.34 40.35C27.43 40.25 27.49 40.12 27.49 39.99C27.48 39.85 27.43 39.73 27.33 39.64L27.03 39.35L27.72 39.27C28.14 39.22 28.57 39.2 29 39.2L35.15 39.2C36.15 39.2 37 38.98 37.68 38.56C37.68 38.56 37.69 38.56 37.69 38.55C37.94 38.39 38.16 38.19 38.35 37.97L42.49 33.21C43.2 32.39 43.16 31.38 42.38 30.68L42.38 30.68ZM23.47 42.8L18.24 37.94L21.05 35.08L26.25 40.01L23.47 42.8ZM41.72 32.56L37.57 37.33C37.44 37.48 37.28 37.61 37.12 37.73C36.61 38.04 35.95 38.2 35.15 38.2L28.99 38.2C28.53 38.2 28.06 38.23 27.61 38.28L26.07 38.45L22.87 35.41C23.09 35.09 23.5 34.57 24.09 34.09C25.33 33.11 26.73 32.82 28.25 33.23C29.05 33.45 29.88 33.56 30.74 33.56L34.78 33.56C35.51 33.56 35.7 34.17 35.7 34.53C35.7 34.8 35.62 35.05 35.47 35.23C35.3 35.42 35.07 35.51 34.77 35.51L31.25 35.51C30.96 35.51 30.73 35.74 30.73 36.01C30.73 36.29 30.96 36.51 31.25 36.51L34.77 36.51C35.36 36.51 35.89 36.28 36.24 35.87C36.54 35.53 36.71 35.08 36.73 34.6L40.06 31.38C40.53 30.92 41.27 31.04 41.69 31.41C41.91 31.6 42.19 32.01 41.72 32.56L41.72 32.56ZM41.72 32.56M29.65 35.88C29.59 35.61 29.31 35.44 29.04 35.51C28.76 35.57 28.59 35.84 28.66 36.11L28.66 36.13C28.72 36.36 28.93 36.51 29.16 36.51C29.2 36.51 29.24 36.51 29.27 36.5C29.55 36.44 29.72 36.17 29.66 35.9L29.65 35.88ZM29.65 35.88M20.46 29.53L25.44 29.53C25.71 29.53 25.96 29.45 26.17 29.3C26.37 29.45 26.62 29.53 26.9 29.53L31.88 29.53C32.15 29.53 32.4 29.45 32.61 29.3C32.81 29.45 33.06 29.53 33.33 29.53L38.31 29.53C39 29.53 39.55 28.99 39.55 28.32L39.55 26.06C39.55 25.04 38.97 24.15 38.09 23.71C38.52 23.22 38.77 22.58 38.77 21.88C38.77 20.29 37.45 19 35.82 19C34.2 19 32.87 20.29 32.87 21.88C32.87 22.58 33.13 23.22 33.55 23.71C33.17 23.9 32.85 24.18 32.61 24.51C32.36 24.18 32.04 23.9 31.66 23.71C32.08 23.22 32.34 22.58 32.34 21.88C32.34 20.29 31.01 19 29.39 19C27.76 19 26.44 20.29 26.44 21.88C26.44 22.58 26.69 23.22 27.12 23.71C26.74 23.9 26.41 24.18 26.17 24.51C25.92 24.18 25.6 23.9 25.22 23.71C25.65 23.22 25.9 22.58 25.9 21.88C25.9 20.29 24.58 19 22.95 19C21.32 19 20 20.29 20 21.88C20 22.58 20.26 23.22 20.68 23.71C19.81 24.15 19.22 25.04 19.22 26.06L19.22 28.32C19.22 28.99 19.78 29.53 20.46 29.53L20.46 29.53ZM35.82 20C36.89 20 37.75 20.84 37.75 21.88C37.75 22.92 36.89 23.76 35.82 23.76C34.76 23.76 33.9 22.92 33.9 21.88C33.9 20.84 34.76 20 35.82 20L35.82 20ZM34.49 24.45C34.89 24.65 35.35 24.76 35.82 24.76C36.3 24.76 36.75 24.65 37.15 24.45C37.95 24.58 38.53 25.25 38.53 26.06L38.53 28.32C38.53 28.44 38.43 28.53 38.31 28.53L33.33 28.53C33.21 28.53 33.12 28.44 33.12 28.32L33.12 26.06C33.12 25.25 33.7 24.58 34.49 24.45L34.49 24.45ZM29.39 20C30.45 20 31.31 20.84 31.31 21.88C31.31 22.92 30.45 23.76 29.39 23.76C28.32 23.76 27.46 22.92 27.46 21.88C27.46 20.84 28.32 20 29.39 20L29.39 20ZM28.06 24.45C28.46 24.65 28.91 24.76 29.39 24.76C29.86 24.76 30.32 24.65 30.72 24.45C31.51 24.58 32.09 25.25 32.09 26.06L32.09 28.32C32.09 28.44 32 28.53 31.88 28.53L26.9 28.53C26.78 28.53 26.68 28.44 26.68 28.32L26.68 26.06C26.68 25.25 27.26 24.58 28.06 24.45L28.06 24.45ZM22.95 20C24.01 20 24.88 20.84 24.88 21.88C24.88 22.92 24.01 23.76 22.95 23.76C21.89 23.76 21.02 22.92 21.02 21.88C21.02 20.84 21.89 20 22.95 20L22.95 20ZM20.24 26.06C20.24 25.25 20.83 24.58 21.62 24.45C22.02 24.65 22.47 24.76 22.95 24.76C23.43 24.76 23.88 24.65 24.28 24.45C25.07 24.58 25.66 25.25 25.66 26.06L25.66 28.32C25.66 28.44 25.56 28.53 25.44 28.53L20.46 28.53C20.34 28.53 20.24 28.44 20.24 28.32L20.24 26.06ZM20.24 26.06" />
</svg>