<svg version="1.2" baseProfile="tiny-ps" xmlns="http://www.w3.org/2000/svg" viewBox="0 0 100 106" width="100" height="106">
	<title>shape_3</title>
	<style>
		tspan { white-space:pre }
		.shp0 { fill: #fe3e57 } 
	</style>
	<path id="shape_3" class="shp0" d="M75.33 94L73.26 93.47C73.3 93.34 76.45 80.42 69.26 69.88C64.23 62.5 55.36 57.96 42.91 56.41C30.28 54.83 21.24 50.05 16.02 42.2C7.97 30.07 12 15.17 12.18 14.55L14.23 15.12C14.19 15.26 10.29 29.73 17.81 41.04C22.66 48.33 31.2 52.79 43.17 54.29C56.27 55.93 65.64 60.78 71.04 68.7C78.77 80.05 75.47 93.43 75.33 94ZM89.19 81.45L87.12 80.93C87.16 80.8 90.31 67.88 83.12 57.34C78.08 49.95 69.22 45.42 56.77 43.86C44.14 42.28 35.1 37.5 29.88 29.66C21.83 17.53 25.86 2.63 26.04 2L28.09 2.57C28.05 2.72 24.15 17.19 31.67 28.49C36.52 35.79 45.06 40.25 57.03 41.75C70.13 43.38 79.5 48.23 84.9 56.15C92.63 67.5 89.33 80.89 89.19 81.45Z" />
</svg>