<svg version="1.2" baseProfile="tiny-ps" xmlns="http://www.w3.org/2000/svg" viewBox="0 0 14 126" width="14" height="126">
	<title>Shape 6</title>
	<style>
		tspan { white-space:pre }
		.shp0 { fill: #cbcbcd } 
	</style>
	<path id="Shape 6" class="shp0" d="M2.06 38.15C3.2 38.15 4.12 37.26 4.12 36.16C4.12 35.06 3.2 34.16 2.06 34.16C0.92 34.16 0 35.06 0 36.16C0 37.26 0.92 38.15 2.06 38.15ZM2.06 45.14C0.92 45.14 0 46.04 0 47.14C0 48.24 0.92 49.14 2.06 49.14C3.2 49.14 4.12 48.24 4.12 47.14C4.12 46.04 3.2 45.14 2.06 45.14ZM2.06 56.12C0.92 56.12 0 57.02 0 58.12C0 59.22 0.92 60.12 2.06 60.12C3.2 60.12 4.12 59.22 4.12 58.12C4.12 57.02 3.2 56.12 2.06 56.12ZM2.06 67.1C0.92 67.1 0 68 0 69.1C0 70.2 0.92 71.1 2.06 71.1C3.2 71.1 4.12 70.2 4.12 69.1C4.12 68 3.2 67.1 2.06 67.1ZM2.06 78.08C0.92 78.08 0 78.98 0 80.08C0 81.18 0.92 82.08 2.06 82.08C3.2 82.08 4.12 81.18 4.12 80.08C4.12 78.98 3.2 78.08 2.06 78.08ZM2.06 89.06C0.92 89.06 0 89.96 0 91.06C0 92.16 0.92 93.06 2.06 93.06C3.2 93.06 4.12 92.16 4.12 91.06C4.12 89.96 3.2 89.06 2.06 89.06ZM2.06 100.04C0.92 100.04 0 100.94 0 102.04C0 103.14 0.92 104.04 2.06 104.04C3.2 104.04 4.12 103.14 4.12 102.04C4.12 100.94 3.2 100.04 2.06 100.04ZM2.06 111.03C0.92 111.03 0 111.92 0 113.02C0 114.12 0.92 115.02 2.06 115.02C3.2 115.02 4.12 114.12 4.12 113.02C4.12 111.92 3.2 111.03 2.06 111.03ZM2.06 122.01C0.92 122.01 0 122.9 0 124C0 125.11 0.92 126 2.06 126C3.2 126 4.12 125.11 4.12 124C4.12 122.9 3.2 122.01 2.06 122.01ZM10.94 4.99C12.08 4.99 13 4.1 13 3C13 1.89 12.08 1 10.94 1C9.81 1 8.88 1.89 8.88 3C8.88 4.1 9.81 4.99 10.94 4.99ZM10.94 11.98C9.81 11.98 8.88 12.87 8.88 13.98C8.88 15.08 9.81 15.97 10.94 15.97C12.08 15.97 13 15.08 13 13.98C13 12.87 12.08 11.98 10.94 11.98ZM10.94 22.96C9.81 22.96 8.88 23.85 8.88 24.96C8.88 26.06 9.81 26.95 10.94 26.95C12.08 26.95 13 26.06 13 24.96C13 23.85 12.08 22.96 10.94 22.96ZM10.94 33.94C9.81 33.94 8.88 34.83 8.88 35.94C8.88 37.04 9.81 37.93 10.94 37.93C12.08 37.93 13 37.04 13 35.94C13 34.83 12.08 33.94 10.94 33.94ZM10.94 44.92C9.81 44.92 8.88 45.81 8.88 46.92C8.88 48.02 9.81 48.91 10.94 48.91C12.08 48.91 13 48.02 13 46.92C13 45.81 12.08 44.92 10.94 44.92ZM10.94 55.9C9.81 55.9 8.88 56.79 8.88 57.9C8.88 59 9.81 59.89 10.94 59.89C12.08 59.89 13 59 13 57.9C13 56.79 12.08 55.9 10.94 55.9ZM10.94 66.88C9.81 66.88 8.88 67.78 8.88 68.88C8.88 69.98 9.81 70.87 10.94 70.87C12.08 70.87 13 69.98 13 68.88C13 67.78 12.08 66.88 10.94 66.88ZM10.94 77.86C9.81 77.86 8.88 78.76 8.88 79.86C8.88 80.96 9.81 81.85 10.94 81.85C12.08 81.85 13 80.96 13 79.86C13 78.76 12.08 77.86 10.94 77.86ZM10.94 88.84C9.81 88.84 8.88 89.74 8.88 90.84C8.88 91.94 9.81 92.84 10.94 92.84C12.08 92.84 13 91.94 13 90.84C13 89.74 12.08 88.84 10.94 88.84Z" />
</svg>