<?xml version="1.0" encoding="utf-8"?><svg viewBox="0 0 25 24" xmlns="http://www.w3.org/2000/svg" xmlns:xlink="http://www.w3.org/1999/xlink"><style>:root>svg{display:none}:root>svg:target{display:block}</style><svg version="1.2" baseProfile="tiny-ps" viewBox="0 0 25 23" id="icon-cart" xmlns="http://www.w3.org/2000/svg"><style>.ashp0{fill:#29282d}</style><path id="acart_icon" class="ashp0" d="M18.44 22c-1.52 0-2.75-1.22-2.75-2.73 0-1.5 1.23-2.72 2.75-2.72 1.51 0 2.74 1.22 2.74 2.72 0 1.51-1.23 2.73-2.74 2.73zm0-3.82c-.61 0-1.1.49-1.1 1.09a1.095 1.095 0 002.19 0c0-.6-.49-1.09-1.09-1.09zm1.75-2.8H7.38c-.38 0-.71-.26-.8-.63L3.9 3.63H1.84c-.46 0-.83-.36-.83-.81 0-.45.37-.82.83-.82h2.71c.38 0 .71.26.8.63l.74 3.07h16.1c.26 0 .5.12.65.32.16.2.21.45.15.7l-2 8.04c-.09.36-.42.62-.8.62zM8.03 13.74h11.52l1.59-6.4H6.49l1.54 6.4zM8.48 22c-1.52 0-2.75-1.22-2.75-2.73 0-1.5 1.23-2.72 2.75-2.72 1.51 0 2.74 1.22 2.74 2.72 0 1.51-1.23 2.73-2.74 2.73zm0-3.82c-.61 0-1.1.49-1.1 1.09a1.095 1.095 0 002.19 0c0-.6-.49-1.09-1.09-1.09z"/></svg><svg version="1.2" baseProfile="tiny-ps" viewBox="0 0 24 23" id="icon-heart" xmlns="http://www.w3.org/2000/svg"><style>.bshp0{fill:#29282d}</style><path id="bheart_icon" class="bshp0" d="M21.78 6.59c-.68-2.42-2.68-3.86-4.17-4.37-1.71-.6-3.75 0-5.58 1.61-1.83-1.57-3.88-2.12-5.58-1.57-1.49.55-3.49 1.99-4.17 4.37-.47 1.57-.51 4.12 1.95 7.22 1.11 1.4 2.82 3.39 4.22 4.96 2.68 3.02 3.11 3.18 3.49 3.18h.17c.39 0 .77-.16 3.45-3.22 1.41-1.61 3.11-3.61 4.22-4.97 2.47-3.09 2.47-5.64 2-7.21zm-3.28 6.19c-1.96 2.47-5.32 6.33-6.47 7.39-1.15-1.06-4.52-4.92-6.48-7.39-1.61-1.99-2.21-3.94-1.7-5.68.51-1.78 2-2.85 3.11-3.23 1.23-.46 2.9.17 4.43 1.66.3.29.72.34 1.06.12.09-.04.17-.08.22-.17 1.53-1.44 3.19-2.07 4.42-1.65 1.11.42 2.6 1.49 3.11 3.27.51 1.7-.08 3.69-1.7 5.68z"/></svg><svg version="1.2" baseProfile="tiny-ps" viewBox="0 0 23 24" id="icon-search" xmlns="http://www.w3.org/2000/svg"><style>.cshp0{fill:#29282d}</style><path id="csearch" class="cshp0" d="M20.89 20.7l-5.81-5.81a7.895 7.895 0 001.77-4.98C16.85 5.55 13.3 2 8.93 2 4.57 2 1.01 5.55 1.01 9.91c0 4.37 3.56 7.92 7.92 7.92 1.88 0 3.61-.66 4.97-1.76l5.81 5.8c.17.17.43.17.59 0l.59-.58c.16-.17.16-.43 0-.59zM8.93 16.16c-3.45 0-6.25-2.8-6.25-6.25 0-3.44 2.8-6.25 6.25-6.25s6.25 2.81 6.25 6.25c0 3.45-2.8 6.25-6.25 6.25z"/></svg><svg version="1.2" baseProfile="tiny-ps" viewBox="0 0 23 23" id="icon-user" xmlns="http://www.w3.org/2000/svg"><style>.dshp0{fill:#29282d}</style><path id="duser" class="dshp0" d="M19.07 14.93a9.954 9.954 0 00-3.8-2.39 5.76 5.76 0 002.51-4.76C17.78 4.59 15.19 2 12 2 8.81 2 6.22 4.59 6.22 7.78c0 1.97.99 3.72 2.51 4.76-1.42.49-2.71 1.3-3.8 2.39A9.932 9.932 0 002 22h1.56c0-4.65 3.79-8.44 8.44-8.44 4.65 0 8.44 3.79 8.44 8.44H22c0-2.67-1.04-5.18-2.93-7.07zM7.78 7.78a4.22 4.22 0 118.442.002A4.22 4.22 0 017.78 7.78z"/></svg></svg>